<?xml version="1.0" standalone="no"?>
<!DOCTYPE svg PUBLIC "-//W3C//DTD SVG 20010904//EN"
 "http://www.w3.org/TR/2001/REC-SVG-20010904/DTD/svg10.dtd">
<svg version="1.0" xmlns="http://www.w3.org/2000/svg"
 width="1024.000000pt" height="1024.000000pt" viewBox="0 0 1024.000000 1024.000000"
 preserveAspectRatio="xMidYMid meet">
<metadata>
Created by potrace 1.11, written by Peter Selinger 2001-2013
</metadata>
<g transform="translate(0.000000,1024.000000) scale(0.100000,-0.100000)"
fill="#000000" stroke="none">
<path d="M858 10225 c-375 -63 -675 -320 -804 -687 -57 -162 -54 114 -54
-4423 0 -3649 2 -4181 15 -4255 39 -224 138 -411 297 -566 141 -137 313 -231
501 -271 78 -17 297 -18 4307 -18 4010 0 4229 1 4307 18 194 42 379 144 519
289 118 121 182 226 240 393 57 164 54 -110 54 4415 0 3666 -2 4176 -15 4258
-36 224 -141 421 -311 583 -146 140 -330 230 -539 264 -78 13 -643 15 -4265
14 -3363 -1 -4190 -4 -4252 -14z m6870 -5113 l2 -2602 -2605 0 -2605 0 0 2598
c0 1429 3 2602 7 2605 3 4 1174 6 2602 5 l2596 -3 3 -2603z"/>
<path d="M3040 5110 l0 -2080 2083 2 2082 3 3 2078 2 2077 -2085 0 -2085 0 0
-2080z"/>
</g>
</svg>
